<svg width="616" height="35" viewBox="0 0 616 35" fill="none" xmlns="http://www.w3.org/2000/svg">
<path d="M11.7328 2.096C6.03675 2.096 1.74875 6.672 1.74875 15.824C1.74875 24.944 6.03675 29.52 11.7328 29.52C17.4288 29.52 21.7168 24.944 21.7168 15.824C21.7168 6.672 17.4288 2.096 11.7328 2.096ZM11.7328 7.184C14.2928 7.184 16.2128 9.872 16.2128 15.824C16.2128 21.744 14.2928 24.432 11.7328 24.432C9.17275 24.432 7.25275 21.744 7.25275 15.824C7.25275 9.872 9.17275 7.184 11.7328 7.184ZM34.264 2.096C28.568 2.096 24.28 6.672 24.28 15.824C24.28 24.944 28.568 29.52 34.264 29.52C39.96 29.52 44.248 24.944 44.248 15.824C44.248 6.672 39.96 2.096 34.264 2.096ZM34.264 7.184C36.824 7.184 38.744 9.872 38.744 15.824C38.744 21.744 36.824 24.432 34.264 24.432C31.704 24.432 29.784 21.744 29.784 15.824C29.784 9.872 31.704 7.184 34.264 7.184ZM56.7953 2.096C51.0993 2.096 46.8113 6.672 46.8113 15.824C46.8113 24.944 51.0993 29.52 56.7953 29.52C62.4913 29.52 66.7793 24.944 66.7793 15.824C66.7793 6.672 62.4913 2.096 56.7953 2.096ZM56.7953 7.184C59.3553 7.184 61.2753 9.872 61.2753 15.824C61.2753 21.744 59.3553 24.432 56.7953 24.432C54.2353 24.432 52.3153 21.744 52.3153 15.824C52.3153 9.872 54.2353 7.184 56.7953 7.184ZM91.7105 2V12.048H89.2465V2.128H84.1905V28.848H89.2465V17.168H91.7105V29.328H96.8305V2H91.7105ZM70.0145 7.504H76.8305V10.992C76.8305 18.672 74.1425 22.672 70.0145 22.992V28.048C76.4785 27.952 82.0145 22.384 82.0145 10.8V2.64H70.0145V7.504ZM126.908 2H121.5V29.328H126.908V2ZM109.884 2.192C104.796 2.192 101.148 5.712 101.148 11.056C101.148 16.4 104.796 19.92 109.884 19.92C114.94 19.92 118.588 16.4 118.588 11.056C118.588 5.712 114.94 2.192 109.884 2.192ZM109.884 7.024C112.028 7.024 113.404 8.752 113.404 11.056C113.404 13.392 112.028 15.088 109.884 15.088C107.708 15.088 106.364 13.392 106.364 11.056C106.364 8.752 107.708 7.024 109.884 7.024ZM119.932 26.896V21.904C118.236 22.672 115.388 22.992 112.86 22.992H100.412V28.048H112.636C115.356 28.048 118.236 27.664 119.932 26.896ZM162.306 2V29.328H167.362V2H162.306ZM155.426 12.048H153.058V2.64H140.642V28.048H153.058V17.168H155.426V28.848H160.418V2.128H155.426V12.048ZM148.066 23.152H145.634V7.536H148.066V23.152ZM197.375 2H191.967V15.376H197.375V2ZM179.903 2.032C174.527 2.032 171.103 4.72 171.103 8.656C171.103 12.624 174.527 15.28 179.903 15.28C185.279 15.28 188.703 12.624 188.703 8.656C188.703 4.72 185.279 2.032 179.903 2.032ZM179.903 6.288C181.983 6.288 183.359 7.216 183.359 8.656C183.359 10.096 181.983 11.024 179.903 11.024C177.823 11.024 176.447 10.096 176.447 8.656C176.447 7.216 177.823 6.288 179.903 6.288ZM197.375 16.336H173.215V20.08H192.031V21.168H173.279V29.328H197.663V25.584H178.623V24.496H197.375V16.336ZM228.156 2H222.748V29.328H228.156V2ZM211.132 2.32C205.98 2.32 202.524 6.352 202.524 15.344C202.524 24.336 205.98 28.368 211.132 28.368C216.284 28.368 219.708 24.336 219.708 15.344C219.708 6.352 216.284 2.32 211.132 2.32ZM211.132 7.28C212.924 7.28 214.364 9.232 214.364 15.344C214.364 21.488 212.924 23.408 211.132 23.408C209.308 23.408 207.868 21.488 207.868 15.344C207.868 9.232 209.308 7.28 211.132 7.28ZM262.498 2V29.328H267.906V2H262.498ZM254.338 7.6H260.194V2.64H242.722V7.6H248.898C248.706 16.368 245.954 22.16 241.954 22.608V28.048C246.114 28.016 249.602 25.296 251.81 20.432L257.314 27.92L261.602 24.72L253.666 14.416C254.05 12.336 254.274 10.064 254.338 7.6ZM292.704 15.248H298.304V2.32H273.792V7.344H292.704V15.248ZM299.904 16.88H272.256V21.904H283.104V29.968H288.704V21.904H299.904V16.88ZM325.181 2V29.328H330.237V2H325.181ZM318.301 12.4H316.317C315.869 5.232 313.565 2.32 309.725 2.32C305.405 2.32 303.037 6.032 303.037 15.344C303.037 24.688 305.405 28.368 309.725 28.368C313.693 28.368 315.997 25.296 316.349 17.584H318.301V28.848H323.293V2.128H318.301V12.4ZM309.725 23.472C308.509 23.472 308.061 21.008 308.061 15.344C308.061 9.68 308.509 7.216 309.725 7.216C310.941 7.216 311.389 9.68 311.389 15.344C311.389 21.008 310.941 23.472 309.725 23.472ZM363.939 2V5.072H355.235V9.808H363.939V17.232H369.347V2H363.939ZM361.539 15.632V11.152C360.099 11.664 357.699 11.888 355.235 11.888H349.027V2.16H343.555V16.432H355.011C357.571 16.432 360.131 16.144 361.539 15.632ZM344.899 29.328H369.347V18.192H344.899V29.328ZM350.307 22.416H363.939V25.104H350.307V22.416ZM394.784 2V8.272H391.744V5.2H386.016V1.904H380.48V5.2H374.304V10.192H380.512C380.192 17.36 377.696 22.352 373.888 22.736V28.048C377.92 28.016 381.344 25.488 383.52 21.008L388.928 28.016L393.184 24.848L385.376 15.312C385.664 13.744 385.888 12.016 385.952 10.192H391.04V13.2H394.784V15.664H391.04V20.592H394.784V29.328H400.128V2H394.784ZM440.07 4.304H429.926V1.648H424.358V4.304H414.214V9.04H440.07V4.304ZM415.142 15.728C415.142 19.824 420.23 21.456 427.142 21.456C434.054 21.456 439.142 19.824 439.142 15.728C439.142 11.632 434.054 10 427.142 10C420.23 10 415.142 11.632 415.142 15.728ZM433.606 15.728C433.606 16.72 430.886 17.104 427.142 17.104C423.398 17.104 420.678 16.72 420.678 15.728C420.678 14.736 423.398 14.352 427.142 14.352C430.886 14.352 433.606 14.736 433.606 15.728ZM413.318 23.504V28.368H440.966V23.504H413.318ZM470.243 2.64H445.571V7.376H464.931V9.456H445.635V20.88H470.563V16.144H450.947V14H470.243V2.64ZM471.747 23.408H444.099V28.368H471.747V23.408ZM495.393 20.656H501.025V2.64H476.321V7.664H495.393V20.656ZM489.377 23.312V12.624H483.777V23.312H474.881V28.368H502.529V23.312H489.377ZM541.063 2H535.655V17.136H541.063V2ZM532.455 9.392C532.455 4.976 528.871 2.032 523.559 2.032C518.247 2.032 514.663 4.976 514.663 9.392C514.663 13.84 518.247 16.752 523.559 16.752C528.871 16.752 532.455 13.84 532.455 9.392ZM520.039 9.392C520.039 7.6 521.447 6.448 523.559 6.448C525.671 6.448 527.079 7.6 527.079 9.392C527.079 11.184 525.671 12.336 523.559 12.336C521.447 12.336 520.039 11.184 520.039 9.392ZM543.015 25.744L537.735 22.128C538.119 21.104 538.375 20.016 538.535 18.832L533.319 17.968C532.967 21.04 531.303 23.504 529.255 24.208L526.279 22.16C526.663 21.168 526.951 20.048 527.111 18.832L521.895 17.968C521.479 21.616 519.207 24.432 516.615 24.432V29.328C519.335 29.328 521.927 28.144 523.879 26.032L528.039 29.328C530.855 29.328 533.479 28.144 535.399 26L539.943 29.616L543.015 25.744ZM566.564 2V12.304H562.884C562.18 5.424 559.044 2.32 554.564 2.32C549.476 2.32 546.084 6.352 546.084 15.344C546.084 24.336 549.476 28.368 554.564 28.368C559.268 28.368 562.468 24.944 562.948 17.36H566.564V29.328H571.972V2H566.564ZM554.564 23.408C552.772 23.408 551.428 21.488 551.428 15.344C551.428 9.232 552.772 7.28 554.564 7.28C556.324 7.28 557.668 9.232 557.668 15.344C557.668 21.488 556.324 23.408 554.564 23.408ZM598.497 23.408V17.488C601.217 15.952 602.785 13.584 602.785 10.736C602.785 5.584 597.697 2.032 590.017 2.032C582.337 2.032 577.249 5.584 577.249 10.736C577.249 13.584 578.817 15.952 581.537 17.488V23.408H576.193V28.368H603.841V23.408H598.497ZM590.017 6.896C594.145 6.896 597.057 8.4 597.057 10.736C597.057 13.04 594.145 14.576 590.017 14.576C585.889 14.576 582.977 13.04 582.977 10.736C582.977 8.4 585.889 6.896 590.017 6.896ZM586.945 19.216C587.905 19.344 588.929 19.408 590.017 19.408C591.105 19.408 592.129 19.344 593.089 19.216V23.408H586.945V19.216ZM613.918 2.8H607.006L608.478 20.24H612.446L613.918 2.8ZM610.462 22.576C608.51 22.576 607.07 24.016 607.07 25.968C607.07 27.92 608.51 29.328 610.462 29.328C612.414 29.328 613.854 27.92 613.854 25.968C613.854 24.016 612.414 22.576 610.462 22.576Z" fill="#363469"/>
<rect opacity="0.5" x="2" y="23" width="197" height="12" fill="#2A23D8"/>
</svg>
