<svg width="299" height="32" viewBox="0 0 299 32" fill="none" xmlns="http://www.w3.org/2000/svg">
<path d="M15.36 12.496L22.272 16.624L24.864 12.656L17.568 8.496C17.76 7.92 17.856 7.376 17.92 6.8H23.072V10.832H26.72V17.296H32.128V2H26.72V6.224H23.84V2.32H6.432V6.8H12.448C11.904 9.392 9.568 11.984 6.048 12.176V16.912C9.952 16.816 13.216 14.992 15.36 12.496ZM19.904 17.68C12.928 17.68 7.424 19.216 7.424 23.664C7.424 28.112 12.928 29.648 19.904 29.648C26.88 29.648 32.384 28.112 32.384 23.664C32.384 19.216 26.88 17.68 19.904 17.68ZM19.904 25.392C16.224 25.392 13.248 24.912 13.248 23.664C13.248 22.448 16.224 21.936 19.904 21.936C23.584 21.936 26.56 22.448 26.56 23.664C26.56 24.912 23.584 25.392 19.904 25.392ZM62.7813 2H57.3733V29.328H62.7813V2ZM53.4053 2.64H37.5013V7.504H48.0293V12.88H37.5653V28.048H48.6373C51.3573 28.048 54.2693 27.568 55.9333 26.736V21.872C54.2693 22.64 51.4533 23.184 48.8613 23.184H42.9413V17.68H53.4053V2.64ZM85.5625 3.408H78.9705V1.488H73.4665V3.408H66.8745V7.152H85.5625V3.408ZM92.7945 6.544V2H87.3865V16.176H92.7945V11.44H95.9945V6.544H92.7945ZM76.2185 16.432C80.7305 16.432 84.5065 15.088 84.5065 12.112C84.5065 9.136 80.7305 7.792 76.2185 7.792C71.7065 7.792 67.9305 9.136 67.9305 12.112C67.9305 15.088 71.7065 16.432 76.2185 16.432ZM76.2185 11.216C78.1705 11.216 79.4825 11.504 79.4825 12.112C79.4825 12.72 78.1705 13.008 76.2185 13.008C74.2665 13.008 72.9545 12.72 72.9545 12.112C72.9545 11.504 74.2665 11.216 76.2185 11.216ZM74.0105 24.784H92.7945V17.136H68.6345V20.624H87.4825V21.616H68.6985V29.328H93.0825V25.808H74.0105V24.784ZM133.313 2H127.905V29.328H133.313V2ZM123.681 2.64H107.937V7.568H118.145V10.032C118.145 17.936 114.561 22.864 107.937 22.928V28.048C117.505 28.048 123.681 21.136 123.681 10.032V2.64ZM163.326 7.44V2H157.918V22.224H163.326V12.688H166.526V7.44H163.326ZM154.43 6.704V2.32H138.142V6.992H148.926V7.6C148.926 11.28 144.51 13.584 138.142 13.648V18.416C147.518 18.416 154.43 14.64 154.43 6.704ZM144.702 19.856H139.198V29.328H163.71V24.464H144.702V19.856ZM198.564 15.568H203.972V2H198.564V4.24H193.636V8.976H198.564V15.568ZM186.82 11.12L193.572 15.408L196.324 11.728L189.124 7.28C189.7 5.776 190.02 4.144 190.02 2.448L184.58 2.128C184.484 6.864 181.604 10.512 177.348 11.024V15.76C181.284 15.536 184.58 13.776 186.82 11.12ZM184.9 25.616V24.56H203.972V16.528H179.492V20.24H198.628V21.296H179.556V29.328H204.26V25.616H184.9ZM217.985 12.496L224.897 16.624L227.489 12.656L220.193 8.496C220.385 7.92 220.481 7.376 220.545 6.8H225.697V10.832H229.345V17.296H234.753V2H229.345V6.224H226.465V2.32H209.057V6.8H215.073C214.529 9.392 212.193 11.984 208.673 12.176V16.912C212.577 16.816 215.841 14.992 217.985 12.496ZM222.529 17.68C215.553 17.68 210.049 19.216 210.049 23.664C210.049 28.112 215.553 29.648 222.529 29.648C229.505 29.648 235.009 28.112 235.009 23.664C235.009 19.216 229.505 17.68 222.529 17.68ZM222.529 25.392C218.849 25.392 215.873 24.912 215.873 23.664C215.873 22.448 218.849 21.936 222.529 21.936C226.209 21.936 229.185 22.448 229.185 23.664C229.185 24.912 226.209 25.392 222.529 25.392ZM251.198 1.904H245.662V5.296H239.55V10.224H257.278V5.296H251.198V1.904ZM267.838 11.984H264.638V2H259.23V29.328H264.638V17.232H267.838V11.984ZM248.414 11.344C243.486 11.344 240.478 15.024 240.478 19.856C240.478 24.72 243.486 28.368 248.414 28.368C253.342 28.368 256.35 24.72 256.35 19.856C256.35 15.024 253.342 11.344 248.414 11.344ZM248.414 23.728C246.654 23.728 245.63 22.192 245.63 19.856C245.63 17.52 246.654 15.984 248.414 15.984C250.174 15.984 251.198 17.52 251.198 19.856C251.198 22.192 250.174 23.728 248.414 23.728ZM296.188 2H290.78V29.328H296.188V2ZM286.556 2.64H270.812V7.568H281.02V10.032C281.02 17.936 277.436 22.864 270.812 22.928V28.048C280.38 28.048 286.556 21.136 286.556 10.032V2.64Z" fill="black"/>
<rect opacity="0.5" y="20" width="168" height="12" fill="#2A23D8"/>
</svg>
