<svg width="288" height="90" viewBox="0 0 288 90" fill="none" xmlns="http://www.w3.org/2000/svg">
<rect x="1" y="1" width="286" height="88" rx="44" fill="#363469"/>
<path d="M105.872 40.6H109.04V31.32H85.584V34.008H105.872V40.6ZM97.2 42.52V37.176H94V42.52H83.76V45.144H111.056V42.52H97.2ZM97.392 47.704C90.864 47.704 85.392 49.08 85.392 53.016C85.392 56.856 90.864 58.36 97.392 58.36C103.92 58.36 109.392 56.856 109.392 53.016C109.392 49.208 103.92 47.704 97.392 47.704ZM97.392 55.832C92.976 55.832 88.72 54.968 88.72 53.016C88.72 51 92.976 50.232 97.392 50.232C101.808 50.232 106.064 51.096 106.064 53.016C106.064 54.968 101.808 55.832 97.392 55.832ZM128.173 45.656C135.501 45.656 140.333 43.032 140.333 38.456C140.333 33.88 135.501 31.256 128.173 31.256C120.845 31.256 116.013 33.88 116.013 38.456C116.013 43.032 120.845 45.656 128.173 45.656ZM128.173 34.072C133.357 34.072 137.037 35.608 137.037 38.456C137.037 41.272 133.357 42.808 128.173 42.808C122.989 42.808 119.309 41.272 119.309 38.456C119.309 35.608 122.989 34.072 128.173 34.072ZM141.837 48.248H114.541V51.224H121.261V58.968H124.397V51.224H131.949V58.968H135.085V51.224H141.837V48.248ZM156.395 30.936H153.163V35.32H145.931V38.136H163.659V35.32H156.395V30.936ZM173.899 42.072H170.059V31H166.891V58.328H170.059V45.112H173.899V42.072ZM154.795 40.312C150.347 40.312 147.179 43.64 147.179 48.664C147.179 53.688 150.347 57.016 154.795 57.016C159.243 57.016 162.378 53.688 162.378 48.664C162.378 43.64 159.243 40.312 154.795 40.312ZM154.795 54.264C152.235 54.264 150.251 52.152 150.251 48.664C150.251 45.176 152.235 43.064 154.795 43.064C157.323 43.064 159.307 45.176 159.307 48.664C159.307 52.152 157.323 54.264 154.795 54.264ZM198.44 58.328H201.608V31H198.44V58.328ZM177.384 56.632C186.728 56.632 192.552 49.528 192.552 38.584V31.992H177.384V34.904H189.32V38.648C189.32 47.8 184.84 53.592 177.384 53.624V56.632Z" fill="#FFB800"/>
<rect x="1" y="1" width="286" height="88" rx="44" stroke="black" stroke-width="2"/>
</svg>
